<svg xmlns="http://www.w3.org/2000/svg" viewBox="0 0 284 72" role="img" aria-labelledby="title desc">
  <title id="title">Tracevane logo lockup</title>
  <desc id="desc">Tracevane wordmark with the signal vane product mark.</desc>
  <defs>
    <linearGradient id="tv-bg" x1="8" y1="4" x2="58" y2="60" gradientUnits="userSpaceOnUse">
      <stop stop-color="#F2FFF9"/>
      <stop offset="0.44" stop-color="#BFEFE3"/>
      <stop offset="1" stop-color="#0F766E"/>
    </linearGradient>
    <linearGradient id="tv-vane" x1="18" y1="44" x2="47" y2="14" gradientUnits="userSpaceOnUse">
      <stop stop-color="#0B2F33"/>
      <stop offset="0.48" stop-color="#155E75"/>
      <stop offset="1" stop-color="#2A9D8F"/>
    </linearGradient>
    <linearGradient id="tv-trace" x1="12" y1="47" x2="50" y2="20" gradientUnits="userSpaceOnUse">
      <stop stop-color="#FFD6A5"/>
      <stop offset="1" stop-color="#7FFFD4"/>
    </linearGradient>
  </defs>
  <g transform="translate(4 4) scale(1)">
    <rect x="0" y="0" width="64" height="64" rx="16" fill="url(#tv-bg)"/>
    <rect x="0.75" y="0.75" width="62.5" height="62.5" rx="15.25" fill="none" stroke="#FFFFFF" stroke-opacity="0.74" stroke-width="1.5"/>
    <path d="M10 39.5C16.5 31 24.7 27.1 37.8 26.2" fill="none" stroke="url(#tv-trace)" stroke-width="5.2" stroke-linecap="round"/>
    <path d="M10 39.5C16.5 31 24.7 27.1 37.8 26.2" fill="none" stroke="#0B2F33" stroke-opacity="0.22" stroke-width="1.4" stroke-linecap="round"/>
    <circle cx="10" cy="39.5" r="3.4" fill="#0B2F33"/>
    <circle cx="24.4" cy="29.8" r="2.1" fill="#FFFFFF" fill-opacity="0.88"/>
    <circle cx="37.8" cy="26.2" r="2.6" fill="#FFD6A5"/>
    <path d="M45.5 9.5L36.8 42.8L28.4 30.6L15.2 26.1L45.5 9.5Z" fill="url(#tv-vane)"/>
    <path d="M45.5 9.5L28.4 30.6L36.8 42.8L45.5 9.5Z" fill="#7FFFD4" fill-opacity="0.22"/>
    <path d="M45.5 9.5L36.8 42.8L28.4 30.6L15.2 26.1L45.5 9.5Z" fill="none" stroke="#F2FFF9" stroke-opacity="0.78" stroke-width="1.5" stroke-linejoin="round"/>
    <path d="M21.4 23.4L31.7 26.9" stroke="#F2FFF9" stroke-opacity="0.78" stroke-width="1.6" stroke-linecap="round"/>
  </g>
  <text x="84" y="39" fill="#0B2F33" font-family="Inter, Avenir Next, Segoe UI, system-ui, sans-serif" font-size="33" font-weight="760" letter-spacing="-1.25">Tracevane</text>
  <text x="86" y="57" fill="#2A6F68" font-family="Inter, Avenir Next, Segoe UI, system-ui, sans-serif" font-size="10.5" font-weight="700" letter-spacing="2.35">LOCAL AGENT CONTROL</text>
</svg>
