<svg xmlns="http://www.w3.org/2000/svg" viewBox="0 0 48 48">
  <defs>
    <linearGradient id="oc-frame" x1="4" y1="4" x2="44" y2="44" gradientUnits="userSpaceOnUse">
      <stop stop-color="#f7fffb" />
      <stop offset="1" stop-color="#d7efe8" />
    </linearGradient>
    <linearGradient id="oc-orb" x1="18" y1="8" x2="35" y2="22" gradientUnits="userSpaceOnUse">
      <stop stop-color="#8fd8cb" />
      <stop offset="1" stop-color="#0f766e" />
    </linearGradient>
    <linearGradient id="oc-ridge-back" x1="10" y1="18" x2="38" y2="38" gradientUnits="userSpaceOnUse">
      <stop stop-color="#2a9d8f" />
      <stop offset="1" stop-color="#7fb069" />
    </linearGradient>
    <linearGradient id="oc-ridge-front" x1="8" y1="27" x2="43" y2="40" gradientUnits="userSpaceOnUse">
      <stop stop-color="#f2d7a2" />
      <stop offset="1" stop-color="#2a9d8f" />
    </linearGradient>
  </defs>
  <rect x="2.5" y="2.5" width="43" height="43" rx="12" fill="url(#oc-frame)" stroke="#9bcfc6" stroke-width="2" />
  <circle cx="30" cy="16" r="5" fill="url(#oc-orb)" />
  <path d="M9.5 35C13.2 30.2 16.9 25.8 20.8 21.7C23.3 24.1 25.1 26.5 26.8 29C29.3 25.4 32.2 21.7 35.8 18.5C38.8 21.9 41.1 25.5 42.5 29.1V38.2H9.5V35Z" fill="url(#oc-ridge-back)" />
  <path d="M8.5 38.2C11.8 34.7 15.5 31.6 19.6 29.1C22.5 30.7 24.9 32.5 27 34.5C29.8 31.4 33.1 28.7 37 26.7C40 28.5 42.4 30.8 44 33.3V38.2H8.5Z" fill="url(#oc-ridge-front)" />
  <path d="M21.1 22.3L24 18L26.9 22.3H21.1Z" fill="#243b3a" opacity="0.95" />
</svg>
