<svg xmlns="http://www.w3.org/2000/svg" viewBox="0 0 64 64" role="img" aria-labelledby="title desc">
  <title id="title">Tracevane flat loop arrow mark</title>
  <desc id="desc">An open execution loop with an incident break and a directional vane arrow.</desc>
  <rect x="3" y="3" width="58" height="58" rx="16" fill="#111517"/>
  <rect x="3.75" y="3.75" width="56.5" height="56.5" rx="15.25" fill="none" stroke="#F4F1EA" stroke-opacity="0.14" stroke-width="1.5"/>
  <path d="M22 12.8C12.8 17.1 8.6 27.2 11.3 37.2C14.4 48.4 24.8 54.8 36.6 52.3C42 51.1 46.6 48.2 49.8 44.2" fill="none" stroke="#35E69A" stroke-width="4.4" stroke-linecap="butt"/>
  <path d="M49.8 44.2L42.5 40.2L52 39.6L52 49.1Z" fill="#35E69A"/>
  <path d="M49.5 34.2C52.2 29 51.8 23.7 48.8 19.1" fill="none" stroke="#F05F4F" stroke-width="4.4" stroke-linecap="butt"/>
  <path d="M48.8 19.1C47.2 16.9 45.2 15.1 42.8 13.8" fill="none" stroke="#F6A44B" stroke-width="4.4" stroke-linecap="butt"/>
  <path d="M43.8 16.1L32.2 25.2L35.1 28.1L28.5 34.8C23.8 39.5 22.8 44.7 27.7 48.1C25.7 43.4 28 39.8 31.3 36.4L37.5 30.2L34.5 27.1Z" fill="#F4F1EA"/>
</svg>
